<?xml version="1.0" standalone="no"?>
<!DOCTYPE svg PUBLIC "-//W3C//DTD SVG 20010904//EN"
 "http://www.w3.org/TR/2001/REC-SVG-20010904/DTD/svg10.dtd">
<svg version="1.0" xmlns="http://www.w3.org/2000/svg"
 width="700.000000pt" height="700.000000pt" viewBox="0 0 700.000000 700.000000"
 preserveAspectRatio="xMidYMid meet">
<metadata>
Created by potrace 1.14, written by Peter Selinger 2001-2017
</metadata>
<g transform="translate(0.000000,700.000000) scale(0.100000,-0.100000)"
fill="#000000" stroke="none">
<path d="M6629 6352 c-63 -48 -242 -181 -398 -297 -155 -115 -331 -246 -390
-290 -59 -44 -235 -174 -390 -290 -637 -473 -1097 -815 -1106 -822 -5 -5 -53
-40 -105 -78 -52 -39 -102 -75 -110 -82 -8 -6 -87 -65 -175 -130 -88 -66 -236
-176 -330 -246 -93 -69 -173 -127 -176 -127 -3 0 -5 26 -3 58 1 31 5 134 8
227 4 94 9 211 11 260 2 50 7 155 10 235 3 80 7 197 10 260 8 170 14 315 20
495 3 88 8 201 10 250 2 50 7 162 10 250 l6 160 -179 -295 c-186 -307 -723
-1195 -751 -1242 -9 -15 -73 -121 -142 -235 -326 -537 -785 -1295 -863 -1426
-23 -38 -49 -81 -58 -95 -10 -15 -24 -38 -32 -52 -35 -63 -546 -906 -554 -915
-5 -6 -11 -16 -13 -21 -4 -10 -179 -301 -536 -889 -97 -159 -196 -323 -220
-364 l-44 -74 48 38 c26 22 64 53 83 69 20 17 55 47 79 66 25 19 101 82 170
140 70 58 146 121 171 141 25 20 55 45 67 55 11 11 41 35 64 54 24 19 86 71
140 115 53 44 115 96 139 115 77 62 413 341 469 389 30 25 64 52 75 60 12 8
23 17 26 20 3 3 32 28 65 56 33 27 65 54 71 60 7 5 31 26 55 45 46 37 268 220
434 358 l99 83 18 -23 c10 -13 18 -26 18 -30 0 -4 42 -94 94 -200 52 -106 123
-254 159 -328 35 -74 108 -225 162 -335 54 -110 117 -240 140 -290 24 -49 90
-188 149 -307 58 -120 119 -247 136 -283 17 -36 31 -65 33 -65 1 0 2 12 3 27
0 16 4 105 8 198 4 94 9 220 11 280 3 61 7 164 10 230 3 66 7 174 10 240 2 66
7 176 10 245 3 69 7 186 10 260 3 74 7 189 10 255 3 66 7 179 10 250 3 72 8
182 10 245 3 63 7 169 10 235 6 171 15 394 20 505 2 52 7 169 10 260 4 91 8
166 9 167 4 4 1661 -1057 1663 -1065 2 -5 -176 -240 -392 -517 -30 -38 -199
-256 -273 -354 -32 -40 -61 -78 -67 -85 -5 -6 -39 -49 -75 -96 -36 -47 -70
-92 -77 -100 -7 -8 -85 -110 -175 -226 -90 -116 -175 -226 -190 -245 -15 -19
-79 -101 -143 -184 -310 -402 -361 -469 -378 -488 -33 -39 -8 -29 80 33 106
74 282 196 303 210 8 6 66 45 127 88 62 42 221 151 354 242 132 91 246 170
252 175 7 6 46 33 87 60 62 42 367 252 770 530 126 87 819 564 920 634 52 36
136 93 185 127 50 35 153 106 230 158 77 53 151 104 164 115 l24 18 -89 50
c-49 28 -181 101 -294 163 -240 133 -209 116 -565 312 -494 274 -689 381 -730
403 -22 12 -56 31 -75 42 -19 11 -70 39 -113 62 -53 30 -75 47 -69 55 5 6 38
47 73 92 35 44 78 97 94 118 17 21 54 68 83 105 29 36 59 73 65 81 7 8 104
131 217 273 113 143 214 271 225 285 16 22 268 340 318 402 7 8 88 112 182
230 93 118 189 240 213 270 49 61 74 93 112 141 14 18 80 102 148 187 109 138
128 163 120 162 -2 -1 -55 -40 -119 -88z"/>
</g>
</svg>
